<?xml version="1.0" encoding="utf-8"?>
<!-- Generator: Adobe Illustrator 27.3.1, SVG Export Plug-In . SVG Version: 6.00 Build 0)  -->
<svg version="1.1" id="Layer_1" xmlns="http://www.w3.org/2000/svg" xmlns:xlink="http://www.w3.org/1999/xlink" x="0px" y="0px"
	 viewBox="0 0 1080 1080" style="enable-background:new 0 0 1080 1080;" xml:space="preserve">
<style type="text/css">
	.st0{fill:none;stroke:#231F20;stroke-miterlimit:10;}
	.st1{display:none;}
	.st2{display:inline;fill:none;stroke:#231F20;stroke-miterlimit:10;}
</style>
<g>
	<path class="st0" d="M202.01,519.58c6.89-13.93,12.22-29.9,10.37-45.21c-2.23-18.42-12.62-35.51-21.07-51.62
		c-9.84-18.75-16.82-39.96-18.89-61.11c-3.82-38.91,15.51-71.65,49.43-90.4c34.55-19.1,76.39-16.49,114.39-13.98
		c39.61,2.61,79.35,2.94,119.02,1.54c52.37-1.85,105.05-3.92,155.72-18.8c28.02-8.23,53.99-19.94,78.97-35.28
		c35.51-21.8,100.8-77.4,142.08-38.94c13.11,12.22,16.24,29.28,13.35,46.33c-7.11,42.04-43.13,74.97-74.26,101.13
		c-34,28.58-72.06,58.22-79.8,104.71c-1.57,10.44,0.52,20,4.91,28.56c20.31,31.56,55.26,48.7,90.94,56.62
		c38.69,8.59,78.14,2.41,116.64,10.53c23.11,4.88,46.28,17.32,65.8,30.77c29.33,20.21,48.56,48,47.75,84.53
		c-0.82,36.93-20.92,70.85-43.45,98.87c-54.12,66.73-144.53,84.25-224.44,99.37c-21.14,4-42.65,6.22-63.44,11.92
		c-42.2,11.56-84.52,24.01-127,34.93c-19.09,4.91-36.8,10.07-54.31,19.38c-17.66,9.38-34.31,20.59-52.16,29.62
		c-48.96,24.78-131.57,38.7-164.72-19.54c-18.11-31.82,6.94-57.98,35.12-70.22c11.83-5.14,28.77-11.58,23.61-27.61
		c-8.4-26.09-45.04-29.02-65.81-19.31c-32.2,15.06-56.54,49.66-93.54,53.86c-34.76,3.94-67.06-17.1-79.54-49.39
		c-9.8-25.34-4.98-53.65,1.56-79.2c9-35.15,22.32-69.11,38.54-101.53c14.48-28.95,34.41-54.57,50.15-82.8
		C199.33,524.82,200.7,522.24,202.01,519.58z"/>
	<path class="st0" d="M202.15,518.7c2.15-4.04,4.12-8.17,5.79-12.42c17.73-44.93-16.88-80.67-22.44-123.47
		c-6.84-52.66,32.9-100.77,82.02-114.39c22.06-6.12,46.27-5.18,69.1-5.26c51.53-0.17,103.11,0.33,154.57-2.83
		c38.72-2.38,78.61-6.05,116.56-16.24c39.84-10.7,74.85-30.55,110.13-51.39c22.38-13.22,44.66-29.36,71.19-32.5
		c29.67-3.52,57.23,18.75,54.65,49.62c-3.29,39.43-40.87,69.99-70.69,91.11c-31.44,22.26-68.38,45.14-85.42,81.25
		c-9.45,20.02-11.34,44.54-0.74,63.98c16.8,30.84,51.83,47.98,83.99,58.07c42.53,13.34,85.27,8.87,128.77,14.58
		c31.82,4.18,64.03,21.05,88.4,41.67c68.19,57.7,32.19,158.94-24.08,210.9c-18.92,17.47-41.3,31.01-64.93,41.1
		c-39.27,16.77-81.73,24.51-123.93,31.08c-51.39,8-103.19,12.82-154.72,19.79c-45.81,6.2-92.75,14.07-133.47,37.24
		c-12.29,6.99-23.85,15.3-36.67,21.25c-19.52,9.05-41.23,12.27-62.71,13.51c-26.22,1.5-56.01-0.2-76.65-18.57
		c-24.87-22.13-17.36-59.43,9.4-76.67c8.78-5.66,20.28-10.16,25.27-20c6.36-12.53-2.41-26.31-13.22-32.77
		c-44.94-26.88-80.37,23.84-118.38,38.04c-22.15,8.28-48.85,7.58-68.78-6.71c-23.48-16.84-31.08-49.64-30.84-77
		c0.37-42.44,16.1-82.7,32.77-121.09c8.46-19.48,17.75-38.6,27.83-57.3C183.02,548.25,193.95,534.11,202.15,518.7z"/>
	<path class="st0" d="M206.15,511.57c7.56-10.27,10.51-22.79,10.6-35.36c0.04-2.54,0-5.08-0.13-7.58c-0.15-2.08-0.36-4.12-0.62-6.11
		c-0.39-2.37-0.91-4.73-1.56-7.05c-0.49-2.35-1.07-4.65-1.71-6.92c-1.93-6.8-4.44-13.45-7.09-19.73c-1.06-2.88-2.08-5.7-3.06-8.51
		c-6.25-17.99-10.53-35.96-5.79-55.46c0.96-4.71,2.25-9.35,3.83-13.88c4.75-13.57,12.18-26.15,21.7-36.78
		c6.35-7.08,13.63-13.3,21.7-18.37c30.93-17.19,66.93-21.89,100.85-23.91c5.06-0.27,10.12-0.56,15.18-0.87
		c3.5-0.02,7.01-0.08,10.51-0.19c3.51-0.11,7.04-0.26,10.61-0.43c26.72-2.94,54.56-2.46,82.02-4.17c5.55-0.28,11.11-0.66,16.87-1.16
		c4.3-0.46,8.6-0.99,12.89-1.57c4.3-0.58,8.59-1.22,12.88-1.91c10.04-0.56,20.11-1.2,30.14-2.03c5.02-0.42,10.02-0.89,14.99-1.58
		c5.27-1.07,10.58-2.11,15.89-3.17c19.1-6.76,39.08-12.33,58.78-18.71c4.92-1.6,9.83-3.24,14.74-4.97
		c10.81-3.38,20.92-7.79,30.69-12.8c3.25-1.67,6.47-3.41,9.66-5.18c9.17-3.83,18.12-8.4,27.02-13.16c2.97-1.59,5.92-3.2,8.88-4.81
		c8.73-4.71,17.73-9.96,26.96-14.75c3.08-1.6,6.18-3.14,9.3-4.6c4.17-1.95,8.38-3.74,12.62-5.29c13.78-6.23,31.62-7.78,46.42-3.08
		c4.93,1.57,9.52,3.83,13.51,6.85c3.21,2.77,5.89,5.87,8.08,9.2c2.69,5.75,4.46,11.38,5.44,16.88c0.97,5.5,1.11,10.87,0.47,16.1
		c-1.81,9.66-5.31,18.56-10.06,26.8c-2.38,4.12-5.06,8.07-8.01,11.86c-3.14,4.11-6.46,7.97-9.92,11.62
		c-3.46,3.66-7.07,7.11-10.81,10.4c-4.04,3.59-8.32,6.97-12.77,10.22s-9.06,6.35-13.77,9.38c-4.83,2.57-9.79,5.28-14.79,8.16
		c-5,2.87-10.04,5.91-15.04,9.11c-8.15,4.84-16.21,10.43-23.8,16.69c-3.8,3.13-7.47,6.44-10.99,9.92
		c-3.55,3.22-6.98,6.74-10.23,10.51c-20.44,24.49-32.96,57.37-20.44,88.67c3.13,8.35,7.65,15.83,13.15,22.52
		c32.25,36.96,83.9,52.61,132.99,56.92c5.35,0.37,10.71,0.59,16.05,0.69c5.34,0.1,10.67,0.08,15.96-0.06
		c15.51-1.11,33.17-1.35,50.32,0.85c4.29,0.55,8.54,1.25,12.74,2.14c14.57,2.89,28.6,8.46,41.41,16.14c3.2,1.92,6.33,3.97,9.37,6.14
		s6,4.47,8.86,6.87c6.22,4.95,11.82,10.68,16.74,16.99c2.46,3.16,4.76,6.46,6.9,9.9c3.71,4.4,6.91,9.07,9.56,13.95
		c2.76,5.67,4.85,11.39,6.38,17.1c2.67,10.42,3.36,20.57,2.55,30.47c-0.41,4.95-1.19,9.83-2.29,14.65
		c-19.78,52.38-47.96,105.6-100.12,131.2c-4.66,2.23-9.46,4.22-14.4,5.97c-5.25,2.4-10.48,4.61-15.78,6.67
		c-15.9,6.18-32.47,11.01-48.76,15.21c-9.08,2.27-18.21,4.28-27.37,6.13c-5.5,1.11-11.02,2.16-16.54,3.17
		c-53.52,9.24-106.74,18.63-158.78,32.29c-5.29,1.31-10.45,2.65-15.62,3.96c-4.27,1.1-8.55,2.19-12.85,3.25s-8.59,2.12-12.86,3.13
		c-47.51,5.73-92.91,19.81-135.32,43.15c-4.49,2.05-8.98,4.03-13.5,5.88c-41.14,16.17-92.79,28.69-130.36-2.61
		c-24.81-22.15-17.52-42.29-2.26-61c1.53-1.87,3.13-3.73,4.79-5.57c8.84-7.99,20.33-19.4,23.95-31.41c0.6-2,0.99-4.02,1.11-6.04
		c-1.49-27.41-35.37-32.56-56.63-26.41c-2.44,0.66-4.85,1.44-7.23,2.31c-4.75,1.74-9.34,3.84-13.64,6.18
		c-2.28,1.24-4.54,2.51-6.76,3.79c-2.22,1.28-4.42,2.57-6.58,3.84c-2.09,1.14-4.18,2.25-6.27,3.31c-4.18,2.11-8.4,4.02-12.71,5.52
		c-2.22,1.1-4.46,2.17-6.73,3.19c-2.26,1.02-4.55,2-6.88,2.92c-2.44,1.08-4.85,2.08-7.28,2.99c-18.33,7.43-38.62,5.7-54.93-3.93
		c-2.33-1.37-4.58-2.91-6.73-4.6c-8.85-7.67-16.06-17.64-20.92-28.67c-0.97-2.21-1.85-4.45-2.63-6.73
		c-4.08-10.29-4.88-20.7-4.03-31.08c0.21-2.6,0.53-5.19,0.92-7.78c0.94-5.47,2.04-10.88,3.25-16.24c0.6-2.68,1.23-5.35,1.88-8.01
		c1.39-5.33,2.76-10.63,4.12-15.91c1.36-5.27,2.72-10.52,4.07-15.75c0.68-2.3,1.33-4.61,1.95-6.91c0.62-2.31,1.21-4.62,1.78-6.94
		c0.53-2.31,1.08-4.62,1.66-6.93c0.58-2.33,1.18-4.65,1.81-7.05c2.32-7.16,4.48-14.43,6.64-21.72c0.72-2.43,1.45-4.87,2.18-7.31
		c0.7-2.28,1.41-4.57,2.14-6.85c0.73-2.28,1.47-4.57,2.24-6.89c0.85-2.31,1.7-4.62,2.55-6.92s1.7-4.6,2.55-6.89
		c1.28-5.25,3.06-10.3,5.19-15.22c1.06-2.46,2.21-4.9,3.42-7.3c1.1-2.21,2.3-4.39,3.55-6.54c1.03-1.85,2.15-3.65,3.33-5.43
		c1.6-2.45,3.19-4.97,4.74-7.53s3.05-5.17,4.49-7.83c5.95-8.78,8.16-19.09,14.42-27.46C204.57,514.34,205.37,512.94,206.15,511.57z"
		/>
	<path class="st0" d="M204.66,514.74c4.07-8.28,7.61-16.8,10.11-25.72c9.4-33.54-5.92-65.69-5.26-99.33
		c0.62-31.89,17.68-61.8,42.2-81.6c37.15-30,91.95-31.84,137.37-36.01c53.93-4.94,110.57-1.97,163.62-13.89
		c50.3-11.3,98.95-31.63,146.15-51.96c10.24-4.41,20.45-8.88,30.66-13.35c13.71-5.99,27.6-12.05,42.38-14.36
		c16.93-2.65,34.57,0.2,47.46,12.07c32.32,29.77,3.99,68.58-19.8,92.78c-19.55,19.88-47.48,26.87-72.06,38.26
		c-24.7,11.44-44.75,29.14-53.89,55.48c-28.41,81.92,62.7,132.41,130.89,141.4c46.96,6.19,98.22-7.61,142.96,11.81
		c21.11,9.16,41.97,24.09,54.79,43.49c23.63,35.78,11.84,83.88-9.33,117.96c-31.72,51.09-87.32,80.43-143.39,97.3
		c-33.45,10.06-67.84,16.4-101.76,24.55c-40.03,9.63-77.85,26.19-116.3,40.56c-33.34,12.46-68.06,20.6-102.73,28.34
		c-16.62,3.71-34.42,6.21-50.36,11.99c-16.4,5.95-32.02,14.05-48.2,20.57c-34.19,13.78-97.8,25.83-117.81-16.75
		c-8.26-17.57-2.8-35.35,10.75-48.29c9.48-9.06,21.23-20.22,24.72-33.59c4.13-15.85-8.55-26.09-21.38-31.68
		c-34.32-14.95-64.5,6.69-96.17,17.69c-15.34,5.33-31.73,8.72-47.82,6.56c-35.3-4.72-46.92-35.21-46.51-67.22
		c0.44-33.79,6.3-67.36,14.91-99.97c6.53-24.73,12.58-50,23.95-73.06C183.75,550.64,195.55,533.27,204.66,514.74z"/>
	<path class="st0" d="M196.8,525.64c3.65-6.66,9.54-11.82,12.34-18.84c1.18-2.46,2.23-4.91,3.19-7.38
		c8.55-22.03,8.36-46.49,7.57-69.76c-1-29.69,0.04-62.62,18.1-87.57c24.57-33.93,68.06-47.24,107.11-56.14
		c68.84-15.69,140.39-11.29,208.93-28.3c31.48-7.81,61.67-19.61,92.77-28.68c41.57-12.12,81.73-34.88,125.97-34.69
		c22.6,0.1,52.02,7.97,54.19,35.22c2.18,27.29-25.78,50.99-46.8,63.54c-26.95,16.09-59.04,25.78-82.19,47.69
		c-22.91,21.68-36.76,52.22-37.18,83.83c-1.08,79.69,92.16,102.01,155.37,102.65c43.62,0.44,91.62-11.71,133.25,4.86
		c32.44,12.91,57.07,40.87,61.32,76.08c5.39,44.65-24.46,82.64-56.94,109.58c-33.89,28.12-74.23,47.91-115.78,61.93
		c-43.37,14.63-88.57,21.88-131.42,38.41c-28.15,10.86-54.76,25.26-82.6,36.86c-37.9,15.79-77.73,21.79-117.38,31.35
		c-28.99,6.99-57.71,15.12-86.06,24.36c-25.52,8.32-52.96,18.03-79.11,6.15c-18.1-8.24-29.69-28.21-24.96-48.06
		c3.47-14.57,14.4-24.43,22.57-36.38c12.09-17.68,9.33-39.02-11.23-47.91c-15.96-6.91-35.64-5.73-52.32-2.35
		c-34.21,6.92-81.26,32.51-113.87,8.19c-33.1-24.68-17.46-74.63-11.19-107.7c4.86-25.57,9.17-51.28,15.44-76.56
		c6.56-26.42,15.26-52.54,28.81-76.26C195.45,528.3,196.15,526.93,196.8,525.64z"/>
	<path class="st0" d="M210.74,495.65c3.04-16.2-9.39-27.77-21.97-35.49c-15.81-9.7-33.44-16.47-48.61-27.22
		c-12.9-9.14-24.54-20.46-34.29-32.89c-19.71-25.13-31.74-56.27-31.12-88.43c0.1-5.28,0.54-10.56,1.29-15.79
		c4.12-28.45,16.99-56.11,37.95-76.05c51.63-49.13,127.69-55.27,195.31-50.75c38.51,2.57,77.47,9.72,114.2,21.58
		c19.09,6.16,37.63,15.39,56.3,22.77c31.96,12.64,65.52,26.69,100.66,27.92c33.21,1.16,67.33-11.2,90.32-35.93
		c2.98-3.21,5.81-6.59,8.47-10.1c7.16-9.45,11.7-22.03,19.1-31.92c37.39-49.99,114.18-78.75,171.88-47.81
		c3.55,1.91,6.98,4.05,10.22,6.46c14.93,11.14,26.41,30.5,24.42,49.67c-2.92,28-26.84,46.45-47.33,62.66
		c-24.34,19.26-45.66,42.81-60.7,70.06c-15.63,28.33-26.94,63.28-17.85,95.44c7.97,28.21,31.04,45.26,56.08,57.87
		c72,36.26,140.32,73.93,190.68,138.98c18.9,24.41,28.07,47.73,29.22,78.95c1.14,30.83-6,61.84-18.82,89.79
		c-27.84,60.68-85.43,101.15-148.74,117.72c-78.31,20.5-159.8,17.4-238.62,1.74c-31.27-6.21-66.51-21.14-97.82-7.34
		c-15.42,6.8-29.02,19.1-41.98,29.64c-13.86,11.28-27.46,22.93-42.01,33.33c-27.23,19.46-59.93,32.01-93.48,35.6
		c-51.45,5.51-130.23-7.82-125.99-76.12c2.11-34.04,25.08-66.03,59.42-73.4c8.62-1.85,17.57-2.15,26.02-4.67
		c9.73-2.9,17.03-10.87,11.95-21.35c-11.51-19.47-39.86-22.31-59.28-14.87c-24.36,9.34-38.5,31.89-52.62,52.42
		c-14.9,21.65-30.32,41.41-56.36,50.01c-27.13,8.97-54.11,2.4-79-9.83c-33.7-16.57-54.87-57.84-61.34-93.15
		c-7.05-38.48-0.07-77.93,16.15-113.01c1-2.16,2.02-4.3,3.07-6.43c14.09-28.68,31.62-54.54,54.6-76.94
		c21.53-20.98,45.84-40.14,70.07-57.79C192.07,522.33,208.02,510.19,210.74,495.65z"/>
	<path class="st0" d="M209.86,497.98c3.1-10.48-1-20.38-7.89-28.31c-16.82-19.37-41.85-26.77-61.38-42.54
		c-46.67-37.7-68.12-105.21-47.31-162.37c16.03-44.03,60.53-69.93,103.66-81.56c28.83-7.77,58.82-9.2,88.53-8.12
		c29.17,1.05,58.79,3.25,87.38,9.31c52.82,11.21,102.4,34.13,154.23,48.87c24.65,7.01,51.63,15.75,77.46,10.66
		c33.34-6.58,61.09-28.7,81.15-55.36c15.46-20.55,31.57-41.17,53.53-55.18c28.53-18.2,63.9-28.04,97.36-20.7
		c26.26,5.76,52.94,22.42,55.11,51.71c1.4,18.9-5.74,32.78-18.28,46.29c-42.68,46.24-93.46,93.56-100.01,159.98
		c-3.3,33.44,9.42,64.52,38.43,82.64c8.22,5.14,16.97,9.39,25.86,13.24c37.84,16.42,73.78,32.65,106.49,58.75
		c31.98,25.51,68.07,50.1,88.17,86.64c33.97,61.75,9.78,141.52-33.17,192.27c-28.89,34.14-68.2,57.24-110.67,70.21
		c-29.62,9.04-60.53,12.09-91.37,12.45c-41.97,0.49-83.12,0.63-124.89-4.77c-50.04-6.47-109.29-21.18-153.03,12.72
		c-23.9,18.53-46.99,39.42-74.16,53.11c-32.54,16.4-69.17,24.17-105.57,22.34c-23.49-1.18-47.61-5.66-65.13-22.68
		c-16.37-15.9-24.13-38.95-20.89-61.51c2.62-18.21,12.73-35.39,27.88-45.84c14.89-10.27,33.3-13.64,50.34-19.72
		c4.59-1.64,9.44-3.77,11.83-8.02c3.9-6.91-0.74-15.72-6.82-20.82c-12.34-10.36-30.11-12.38-45.79-8.66
		c-15.72,3.73-29.96,13.01-40.1,25.54c-11.15,13.76-15.3,31.61-27.1,45.05c-14.6,16.63-33.94,30.61-56.49,32.97
		c-31.06,3.25-63.11-11.54-83.83-34.27c-21.9-24.02-30.36-62.07-31.96-93.62c-0.72-14.18,0.01-28.45,2.33-42.46
		c5.5-33.26,21.38-63.03,41.79-89.53c23.4-30.38,50.5-56.44,77.25-83.64c0.26-0.26,0.51-0.52,0.77-0.78
		c9.05-9.22,18.02-18.53,26.72-28.09C204.91,509.05,208.2,503.57,209.86,497.98z"/>
	<path class="st0" d="M211.43,499.13c1.78-7.25,0.78-13.79-1.95-19.76c-0.68-1.49-1.47-2.95-2.35-4.37
		c-14.8-20.66-39.84-30.23-58.37-47.99c-2.04-1.68-4.03-3.42-5.97-5.25c-1.95-1.82-3.85-3.74-5.69-5.77
		c-1.96-1.95-3.83-3.89-5.65-5.89c-5.47-5.97-10.45-12.4-14.83-19.31c-1.52-2.31-2.97-4.66-4.33-7.05
		c-6.15-10.73-10.81-22.28-13.87-34.23c-0.51-1.99-0.97-4-1.39-6.01c-5.58-22.46-4.1-46.02,1.42-68.11c0.63-2.47,1.33-4.92,2.1-7.34
		c0.83-2.18,1.76-4.32,2.8-6.44c1-1.97,2.1-3.9,3.34-5.77s2.59-3.7,4.07-5.46c1.5-2.1,3.05-4.14,4.67-6.15
		c1.58-2.04,3.22-4.02,4.92-5.93c1.7-1.91,3.46-3.77,5.27-5.57c14.44-15.53,32.85-25.1,52.05-33.74c1.9-0.83,3.82-1.63,5.75-2.39
		c11.61-4.59,23.85-7.95,36.33-10.07c2.41-0.41,4.83-0.77,7.31-1.08c31.17-2.82,62.4-2.06,93.67,0.34c2.86,0.22,5.71,0.45,8.67,0.7
		c20.94,2.61,42.33,4.5,62.87,8.99c2.28,0.5,4.56,1.03,6.82,1.6c14.46,3.44,28.69,7.56,42.79,11.94c2.35,0.73,4.7,1.47,7.04,2.22
		c6.92,1.86,13.73,4.09,20.48,6.47c2.26,0.8,4.51,1.62,6.78,2.45c10.21,2.94,20.54,6.14,30.93,9.25c2.6,0.78,5.2,1.55,7.83,2.33
		c2.43,0.61,4.86,1.25,7.28,1.92c2.43,0.66,4.86,1.35,7.29,2.03c23.7,7.3,48.74,12.46,73.7,7.68c3.01-0.48,6.01-1.08,9-1.83
		c2.78-0.58,5.54-1.23,8.27-1.98c2.73-0.74,5.43-1.57,8.09-2.49c13.76-3.54,25.32-10.5,35.14-19.45c3.27-2.98,6.36-6.19,9.26-9.56
		c10.47-19.97,24.52-38.72,41.52-53.88c4.25-3.79,8.68-7.36,13.22-10.69c7.44-6.78,15.96-12.32,25.11-16.58
		c4.45-2.16,9.07-4.01,13.81-5.52c4.09-1.47,8.3-2.66,12.59-3.57c4.29-0.9,8.66-1.52,13.07-1.85c28.96-3.23,58.7,6.16,75.92,31.2
		c9.39,14.09,11.52,28.4,8.95,42.01c-0.86,4.54-2.23,9-4.03,13.35c-1.79,4.12-3.36,8.82-6.54,13.52
		c-9.85,11.27-20.12,22.26-30.18,33.38c-3.35,3.71-6.68,7.43-9.97,11.18c-3.18,3.84-6.34,7.75-9.46,11.73
		c-3.12,3.98-6.19,8.03-9.2,12.14c-7.7,11.4-15.49,23.19-22.47,35.36c-2.33,4.06-4.57,8.17-6.69,12.32
		c-2.29,3.87-4.37,7.87-6.24,11.99c-1.87,4.12-3.52,8.36-4.96,12.71c-1.73,4.45-3.25,9.07-4.52,13.8
		c-1.24,3.97-2.26,8.02-3.04,12.11c-1.46,6.52-2.25,13.47-2.11,20.38c4,41.43,43.14,68.04,78.96,78.85
		c5.43,1.76,10.9,3.34,16.3,4.81c5.4,1.46,10.74,2.82,15.91,4.11c12.96,3.45,26.4,7.83,39.37,13.4c4.32,1.86,8.59,3.85,12.78,5.98
		c14.73,10.44,30.63,20.54,45.86,31.37c3.81,2.71,7.57,5.46,11.27,8.28c3.69,2.82,7.32,5.7,10.84,8.64
		c9.33,6.63,17.17,14.56,23.71,23.42c3.27,4.43,6.22,9.1,8.87,13.96c3.65,6.91,6.73,14.05,9.28,21.35
		c2.55,7.3,4.56,14.77,6.06,22.33c2.73,15.25,4.05,30.93,3.56,46.38c-0.12,3.86-0.36,7.71-0.7,11.52
		c-4.14,55.39-37.01,100.78-81.11,131.4c-4.76,3.2-9.65,6.17-14.66,8.96c-5,2.78-10.12,5.36-15.33,7.74
		c-4.39,2.06-8.76,4.02-13.1,5.9c-4.6,1.94-9.19,3.78-13.78,5.57c-4.59,1.79-9.19,3.53-13.77,5.23c-4.67,1.47-9.34,2.81-14.04,4.06
		c-4.7,1.25-9.42,2.39-14.17,3.44c-5.56,1.11-11.01,2.01-16.48,2.77c-8.2,1.14-16.46,2-24.76,2.63c-16.59,0.4-32.99,1.11-49.31,1.74
		c-5.44,0.21-10.87,0.41-16.29,0.59c-45.61,2.96-89.79-1.45-134.49-5.74c-5.59-0.54-11.18-1.07-16.79-1.59
		c-35.48-8.41-64.32,8.52-91.71,28.96c-4.57,3.41-9.09,6.91-13.61,10.4c-4.51,3.49-9.02,6.97-13.5,10.36
		c-38.92,27.06-84.31,52.1-134.66,46.33c-5.4-0.29-10.78-0.86-16.18-1.77c-5.75-0.99-11.43-2.41-16.94-4.25
		c-27.67-8.56-52.71-30.47-57.41-60.21c-1.17-8.22-0.49-16.04,1.66-23.29c0.72-2.41,1.6-4.76,2.63-7.04
		c6.17-14.19,17.95-25.24,31.43-31.8c2.29-1.11,4.64-2.15,7.03-3.08c2.4-0.93,4.84-1.73,7.32-2.41c1.55-0.65,3.1-1.28,4.65-1.91
		c10.97-5.2,25.7-4.46,33.07-16.25c1.1-2.03,1.7-4.14,1.87-6.26c0.17-2.12-0.1-4.23-0.72-6.25c-3.45-6.88-8.65-11.76-14.85-15.01
		c-3.1-1.62-6.45-2.84-9.95-3.68c-11.24-2.78-22.78-2.24-33.52,0.97c-2.15,0.64-4.27,1.39-6.34,2.24c-2.73,1.1-5.41,2.36-8.03,3.77
		s-5.18,2.98-7.66,4.71c-1.87,1.36-3.68,2.79-5.42,4.29c-1.7,1.45-3.33,2.94-4.89,4.47c-4.74,4.11-8.43,8.53-11.37,13.68
		c-0.96,2.06-1.93,4.12-2.92,6.16s-2,4.08-3.03,6.09c-11.72,23.83-28.66,48.87-56.59,53.29c-2.58,0.45-5.2,0.77-7.83,0.96
		c-13.17,0.97-26.75-1.16-38.45-5.03c-2.23-0.8-4.43-1.66-6.6-2.58c-2.17-0.92-4.3-1.9-6.39-2.93c-1.99-1.06-3.92-2.2-5.8-3.43
		c-5.63-3.67-10.75-8.07-15.13-13.31c-1.77-1.9-3.46-3.86-5.07-5.87c-16.41-20.1-23.04-45.14-25.7-70.43
		c-0.53-5.01-0.91-10.05-1.1-15.08c-0.38-10.07,0-20.13,1.43-30.03c0.37-2.31,0.76-4.59,1.17-6.86c4.85-23.63,8.53-47.2,19.17-68.65
		c0.81-1.8,1.65-3.59,2.49-5.37c0.85-1.79,1.71-3.57,2.59-5.34c2.01-3.88,4.09-7.74,6.23-11.58c1.07-1.92,2.16-3.83,3.26-5.74
		c1.01-2.34,2.09-4.65,3.22-6.92c1.13-2.27,2.32-4.51,3.55-6.72c1.22-2.16,2.49-4.27,3.82-6.36c1.32-2.08,2.69-4.13,4.11-6.19
		c1.16-1.86,2.37-3.68,3.62-5.47c1.25-1.79,2.55-3.55,3.9-5.31c1.37-2.03,2.81-4,4.3-5.9c1.49-1.91,3.05-3.76,4.67-5.62
		c1.65-2.06,3.32-4.08,5.01-6.08c1.74-2.04,3.49-4.07,5.27-6.09c1.77-2.02,3.56-4.03,5.37-6.03c1.78-2.08,3.6-4.12,5.44-6.14
		c13.42-14.09,27.89-27.28,39.89-42.37c3-3.77,5.85-7.67,8.48-11.72C208.12,503.07,209.61,501.29,211.43,499.13z"/>
	<path class="st0" d="M206.34,505.99c0.12-0.18,0.24-0.36,0.35-0.54c3.57-5.48,6.13-11.78,6.25-18.32
		c0.33-18.91-17.9-30.48-30.91-40.9c-3.68-2.95-7.2-5.98-10.58-9.08c-52.13-47.87-80.27-132.82-26.52-191.18
		c13.19-14.32,30.41-24.68,48.66-31.21c24.65-8.82,51.19-11.06,77.37-10.98c68.05,0.21,136.26,14.17,202.73,27.53
		c30.03,6.04,60.12,12.71,90.73,13.89c28.9,1.11,58.57-3.71,84.08-17.87c29.83-16.56,43.44-44.71,65.32-69.33
		c13.21-14.87,34.86-27.15,53.36-33.79c20.58-7.38,44.14-8.43,63.91,0.9c57.8,27.25,27.71,96.85-0.63,133.99
		c-27.49,36.02-65.73,70.45-81.06,114.04c-5.13,14.6-6.9,30.75-2.56,45.6c10.24,35.05,42.57,45.64,74.11,54.87
		c46.55,13.62,90.47,28.74,130.83,56.24c29.16,19.87,61.8,47.58,73.98,81.72c22.68,63.55-9.94,132.65-54.74,178.09
		c-23.4,23.74-51.99,42.3-83.12,54.2c-36.1,13.8-72.7,14.56-110.88,14.87c-49.37,0.41-98.67,3.59-147.76,8.76
		c-24.72,2.51-54.18,2.2-77.46,10.55c-23,8.24-43.6,21.11-63.91,34.46c-9.78,6.43-19.52,12.94-29.58,18.94
		c-38.19,22.78-83.38,36.86-127.74,25.62c-8.87-2.25-17.49-5.49-25.59-9.76c-18.91-9.96-34.73-27.26-39.11-48.17
		c-4.52-21.58,4.76-41.53,22.17-54.01c15.91-11.42,40.92-9.59,53.95-25.4c4.92-5.97,4.09-15.2-0.1-21.71
		c-14.55-22.65-47.33-20.88-67.37-7.58c-13.65,9.06-23.88,22.33-33.49,35.61c-10.77,14.87-21.95,32.28-37.68,42.35
		c-33.7,21.57-77.33,3.86-101.28-23.97c-32.01-37.19-28.18-93.15-17.8-137.94c8.81-38,26.27-74.13,48.48-106.08
		C155.54,567.59,184.29,539.37,206.34,505.99z"/>
	<path class="st0" d="M208.38,510.77c12.91-29.35-3.45-52.22-22.18-73.79c-22.09-25.45-44.67-50.53-50.35-84.91
		c-6.91-41.8,9.37-89.01,46.26-112.02c19.75-12.31,45.43-18.66,68.63-17.92c76.81,2.46,154.95,14.58,232.22,21.44
		c63.88,5.67,146.75,15.07,195.22-37.54c13.54-14.7,24.36-30.61,39.54-44.07c36.92-32.71,107.99-57.1,136.11-0.44
		c18.85,37.99-8.33,72.7-28.85,102.61c-32.11,46.81-113.92,98.66-91.04,165.09c14.1,40.94,64.3,50.17,101.18,57.43
		c33.45,5.35,64.54,11.73,94.93,27.58c72.37,37.75,128.04,119.45,101.78,202.78c-25.13,79.72-102.75,132.4-182.31,147.18
		c-27.81,5.17-56.07,4.84-84.24,5.81c-27.59,0.96-55.22,0.88-82.79-0.52c-39.58-2.01-81.85-3.54-121.26,6.7
		c-42.89,11.15-77.89,39.39-116.74,59.5c-39.55,20.47-92.37,29.27-133.59,8.36c-27.14-13.77-52.53-48.87-35.77-79.53
		c14.94-27.32,48.97-23.51,68.19-44.33c3.87-4.19,4.86-10.48,2.73-16.03c-7.09-18.47-29.19-24.05-47.08-22.64
		c-24.01,1.9-40.46,17.42-53.41,36.74c-1.45,2.17-2.89,4.35-4.32,6.54c-20.78,31.73-55.08,58.32-94.16,41.94
		c-60.38-25.3-70.32-102.67-56.79-159.19c11.55-48.21,39.07-89.59,67.9-129.1C172.05,559.44,197.25,536.08,208.38,510.77z"/>
	<path class="st0" d="M208.13,509.7c7.05-11.92,6.31-26.65,4.63-39.7c-0.29-1.94-0.55-3.85-0.77-5.74
		c-0.43-2.27-1.05-4.52-1.86-6.74c-0.81-2.21-1.82-4.39-3.05-6.53c-4.86-8.45-11.14-15.99-16.62-24.06
		c-32.95-48.5-39.1-126.74,16.18-162.26c36.52-23.46,83.02-19.71,124.2-15.62c54.46,5.42,108.41,4.35,162.99,4.43
		c51.04,0.08,98.29-0.7,145.31-22.99c3.65-1.66,7.27-3.3,10.77-5.01c1.75-0.86,3.47-1.74,5.16-2.65c1.85-0.43,3.65-0.91,5.39-1.47
		c4.67-1.97,9.83-2.71,12.78-6.39c5.6-7.36,12.02-13.55,18.77-19.31c1.69-1.44,3.4-2.85,5.12-4.25
		c10.52-7.36,20.38-15.83,30.59-23.81c15.35-11.98,33.33-21.79,52.21-26.75c30.36-7.97,70.05,1.74,79.26,35.58
		c14.18,52.1-45.19,97.16-75.65,130.56c-28.82,31.61-67.12,56.22-72.36,102.46c-3.24,28.52,11.45,49.29,35.14,63.52
		c18.85,11.32,40.01,17.23,61.39,21.46c30.24,5.98,60.67,12.29,91.06,18.07c7.99,1.52,16.01,3.05,23.72,5.66
		c37.35,12.65,75.39,35.92,92.11,73.11c36.92,82.13-29.85,169.36-100.64,206.2c-46.31,24.1-98.61,32.66-149.57,40.96
		c-54.54,8.89-109.06,20.5-164.07,25.9c-12.43,1.22-23.51,3.68-35.32,7.65c-27.2,7.52-51.1,20.85-76.08,33.72
		c-42.18,21.09-81.21,49.39-130.91,44.28c-33.17-3.41-92.47-29.8-83.67-71.65c5.87-27.9,36.32-34.93,57.28-47.89
		c6.03-3.73,11.3-9.13,13.45-15.88c4.15-13.01-6.15-23.34-17.04-28.52c-21.06-10.02-46.36-3.84-64.66,9.17
		c-18.95,13.47-31.21,33.94-49.28,48.37c-22.01,17.57-51.11,19.75-76.34,7.37c-65.76-32.26-54.18-118.47-32.08-174.94
		c10.54-26.91,26.82-52.05,41.69-76.74c11.5-19.1,24.88-36.99,36.89-55.76c1.33-2.09,2.65-4.18,3.95-6.29
		c1.38-2.59,3.21-4.97,5.19-7.3c4.12-4.15,7.8-9.31,11.4-14.75C205.97,513.38,207.08,511.55,208.13,509.7z"/>
	<path class="st0" d="M205.2,515.07c2.7-4.38,5.09-8.85,6.8-13.42c5.44-14.53,2.59-29.42-4.96-42.61
		c-10.28-17.96-25.39-32.52-35.96-50.2c-12.49-20.91-20.13-46.42-22.75-70.52c-0.22-2.69-0.29-5.28-0.26-7.86
		c0.41-31.52,20.56-60.92,46.74-77.29c29.29-18.32,65.19-15.56,98.25-15.02c45.84,0.74,91.55,6.85,137.43,8.65
		c34.5,1.36,68.99,0.88,103.43,1.61c25.87,0.54,52.1,0.23,77.42-5.67c32.01-7.46,56.61-29.36,78.52-52.62
		c32.39-34.41,119.61-91.75,156.57-34.22c20.08,31.25,6.63,67.08-12.96,94.84c-26.92,38.16-65.7,66.96-91.03,106.09
		c-16.75,25.88-25.98,63.97-6.43,91.24c15.24,21.25,43.32,29.59,67.56,35.94c37.91,9.92,78.27,12.04,114.42,28.1
		c26.52,11.78,53.63,30.55,74.89,50.35c29.86,27.83,44.83,70.43,36.58,111.01c-8.78,43.26-38.36,84.21-70.57,113.28
		c-2.42,2.19-4.89,4.33-7.39,6.42c-35.83,29.95-78.47,44.28-123.91,52.58c-40.31,7.36-81.55,9.5-122.42,11.27
		c-44.78,1.93-89.84,3.85-133.72,13.73c-43.52,9.8-79.45,32.95-119.08,52.19c-39.65,19.24-88.17,25.85-129.28,7.26
		c-26.77-12.11-44.64-43.64-28-71.37c8.59-14.31,22.23-19.62,36.14-27.04c11.96-6.38,23.95-15.57,16.45-30.42
		c-11.18-22.11-44.78-23.88-65.26-16.65c-28.27,9.99-41.24,36.74-64.84,52.9c-1.56,1.07-3.16,2.08-4.8,3.01
		c-28.37,16.29-64.71,8.44-89.04-11.55c-27.16-22.32-33.17-58.72-25.81-91.72c16.02-71.87,53.35-135.44,90.98-197.82
		C193.78,531.49,200.06,523.42,205.2,515.07z"/>
</g>
<g class="st1">
	<circle class="st2" cx="443.69" cy="2433.07" r="257.79"/>
	<circle class="st2" cx="442.55" cy="2433.07" r="238.96"/>
	<circle class="st2" cx="443.69" cy="2429.41" r="220.77"/>
	<circle class="st2" cx="443.69" cy="2432.21" r="202.38"/>
	<circle class="st2" cx="443.69" cy="2433.07" r="188.96"/>
	<circle class="st2" cx="443.69" cy="2432.21" r="175.1"/>
	<circle class="st2" cx="443.53" cy="2433.07" r="160.86"/>
	<circle class="st2" cx="443.69" cy="2432.47" r="437.81"/>
	<circle class="st2" cx="441.75" cy="2432.47" r="405.83"/>
	<circle class="st2" cx="443.69" cy="2426.25" r="374.94"/>
	<circle class="st2" cx="443.69" cy="2431.01" r="343.7"/>
	<circle class="st2" cx="443.69" cy="2432.47" r="320.92"/>
	<circle class="st2" cx="443.69" cy="2431.01" r="297.38"/>
	<circle class="st2" cx="443.43" cy="2432.47" r="273.18"/>
</g>
<g class="st1">
	<circle class="st2" cx="-800.26" cy="2593.32" r="257.79"/>
	<circle class="st2" cx="-801.41" cy="2593.32" r="238.96"/>
	<circle class="st2" cx="-800.26" cy="2589.66" r="220.77"/>
	<circle class="st2" cx="-800.26" cy="2592.46" r="202.38"/>
	<circle class="st2" cx="-800.26" cy="2593.32" r="188.96"/>
	<circle class="st2" cx="-800.26" cy="2592.46" r="175.1"/>
	<circle class="st2" cx="-800.42" cy="2593.32" r="160.86"/>
	<circle class="st2" cx="-800.26" cy="2592.72" r="437.81"/>
	<circle class="st2" cx="-802.2" cy="2592.72" r="405.83"/>
	<circle class="st2" cx="-800.26" cy="2586.5" r="374.94"/>
	<circle class="st2" cx="-800.26" cy="2591.26" r="343.7"/>
	<circle class="st2" cx="-800.26" cy="2592.72" r="320.92"/>
	<circle class="st2" cx="-800.26" cy="2591.26" r="297.38"/>
	<circle class="st2" cx="-800.53" cy="2592.72" r="273.18"/>
</g>
</svg>
